<?xml version="1.0" encoding="UTF-8"?>
<svg version="1.1" xmlns="http://www.w3.org/2000/svg" width="1583" height="1664">
<path d="M0 0 C1.65758835 0.00140488 1.65758835 0.00140488 3.34866333 0.00283813 C50.08396754 0.08790513 96.48802045 4.12842668 142.375 13.1875 C143.55008118 13.41922913 143.55008118 13.41922913 144.74890137 13.65563965 C224.60051771 29.51079808 301.03817395 58.12179631 371.375 99.1875 C372.90452847 100.068437 374.43445846 100.94867733 375.96484375 101.828125 C403.28470302 117.61081936 429.12655217 135.91601721 453.62060547 155.77587891 C455.90676243 157.61536674 458.21845683 159.42075874 460.53295898 161.22436523 C471.91181429 170.09220341 483.25272996 179.10207717 493.86547852 188.88208008 C495.49407379 190.37822029 497.13140342 191.86492894 498.77880859 193.34033203 C507.86311292 201.52827864 516.49577458 210.15628398 525.13110352 218.81323242 C527.69629463 221.38381311 530.26682731 223.94896593 532.83789062 226.51367188 C534.49250844 228.16895008 536.14681625 229.82453825 537.80078125 231.48046875 C538.55821121 232.23587448 539.31564117 232.99128021 540.09602356 233.76957703 C544.72243816 238.41620319 549.11621029 243.20266621 553.375 248.1875 C554.37198585 249.34019848 555.36931799 250.49259765 556.3671875 251.64453125 C561.74078008 257.89006181 567.05757358 264.17250138 572.25 270.5703125 C573.63801453 272.27981568 575.03354962 273.98324746 576.4375 275.6796875 C592.16328768 294.70095275 606.97540099 314.45585252 620.375 335.1875 C621.06045898 336.24759277 621.06045898 336.24759277 621.75976562 337.32910156 C666.84865276 407.34195404 701.25295099 483.28381839 746.578125 733.78515625 C746.58514672 735.33778919 746.59223354 736.89042183 746.59938049 738.4430542 C746.6187848 743.37870702 746.62381465 748.31431289 746.625 753.25 C746.62544186 754.09076962 746.62588371 754.93153923 746.62633896 755.79778671 C746.63309328 780.29885473 746.50273928 804.67089243 743.62823486 829.03570557 C743.36273786 831.29169424 743.10837584 833.54877434 742.85498047 835.80615234 C733.48066545 918.28601427 710.63580052 997.54885273 651.78564453 1118.74511719 C650.1615709 1121.55703006 648.59565855 1124.39753119 647.03491211 1127.24487305 C637.91509608 1143.81286155 627.64497183 1159.81209048 616.73730469 1175.25585938 C615.2772259 1177.32613596 613.82960046 1179.40479153 612.3828125 1181.484375 C606.66500655 1189.67765029 600.80745954 1197.72178476 594.63574219 1205.57958984 C593.31582099 1207.26297502 592.00512883 1208.95327453 590.6953125 1210.64453125 C585.71688243 1217.0523239 580.6274689 1223.34157341 575.35302734 1229.50830078 C572.52696902 1232.812909 569.77737607 1236.16514122 567.0625 1239.5625 C562.3122102 1245.40441833 557.17242915 1250.85116983 552 1256.31640625 C549.38232338 1259.0857485 546.84180789 1261.91202918 544.31640625 1264.765625 C538.81588535 1270.89732455 533.00551139 1276.70738552 527.17260742 1282.52026367 C525.30856756 1284.37892108 523.44996488 1286.24289614 521.59179688 1288.10742188 C516.21669345 1293.48552998 510.85446435 1298.81784623 505.05932617 1303.74829102 C502.31080715 1306.09682264 499.69878196 1308.58973743 497.0625 1311.0625 C492.24263923 1315.54617269 487.29996022 1319.8037423 482.1640625 1323.92578125 C479.68794332 1325.93372664 477.26061044 1327.98844465 474.84448242 1330.06787109 C467.29734206 1336.55071559 459.44970933 1342.59780389 451.50390625 1348.58203125 C449.4767792 1350.11074541 447.45639563 1351.64793975 445.4375 1353.1875 C429.57723528 1365.23970116 413.21849097 1376.5557145 396.375 1387.1875 C395.59108887 1387.68572266 394.80717773 1388.18394531 393.99951172 1388.69726562 C319.30490026 1436.08401104 235.21728398 1469.05436675 111.375 1496.1875 C110.49086426 1496.33670898 109.60672852 1496.48591797 108.69580078 1496.63964844 C77.66045342 1501.71957242 45.75078725 1502.46913998 14.375 1502.5 C13.20636414 1502.50349457 12.03772827 1502.50698914 10.8336792 1502.5105896 C7.51393109 1502.51612808 4.19469904 1502.50573706 0.875 1502.48828125 C-0.11567474 1502.4890567 -1.10634949 1502.48983215 -2.12704468 1502.4906311 C-6.71064335 1502.44367223 -10.4769605 1502.39499083 -14.625 1500.1875 C-13.96113281 1499.52492188 -13.29726563 1498.86234375 -12.61328125 1498.1796875 C-10.37454894 1495.94174264 -8.14525255 1493.69464862 -5.91796875 1491.4453125 C-4.5495318 1490.06765605 -3.18104103 1488.69005306 -1.8125 1487.3125 C-1.13896484 1486.63058594 -0.46542969 1485.94867187 0.22851562 1485.24609375 C4.19827704 1481.25733826 8.27548893 1477.47761605 12.5378418 1473.80419922 C15.10916136 1471.541438 17.48175006 1469.13841861 19.875 1466.6875 C23.54065971 1462.96629999 27.30668361 1459.45065496 31.28125 1456.0625 C33.91485527 1453.70404752 36.39326514 1451.20304596 38.875 1448.6875 C42.54347581 1444.96904495 46.30649229 1441.45081805 50.28125 1438.0625 C52.91489612 1435.70401094 55.39261257 1433.20243918 57.875 1430.6875 C77.60435835 1410.78006672 97.46131925 1401.69569172 124.375 1395.1875 C125.33811096 1394.95416962 125.33811096 1394.95416962 126.32067871 1394.71612549 C131.8142985 1393.3854997 137.30973011 1392.06239352 142.80548096 1390.74060059 C208.33766656 1374.96192603 271.63893345 1351.26469271 329.375 1316.1875 C330.28572266 1315.63852051 331.19644531 1315.08954102 332.13476562 1314.52392578 C362.81204097 1296.00210846 392.80559429 1275.06706485 419.84472656 1251.51171875 C421.45496146 1250.11830553 423.08085736 1248.74513069 424.7109375 1247.375 C439.50783521 1234.90761247 453.2475872 1221.40830301 466.9375 1207.75 C467.92834595 1206.7631723 467.92834595 1206.7631723 468.93920898 1205.75640869 C478.99132838 1195.78302731 478.99132838 1195.78302731 488.375 1185.1875 C489.11105469 1184.29804687 489.84710937 1183.40859375 490.60546875 1182.4921875 C491.25128906 1181.69039062 491.89710937 1180.88859375 492.5625 1180.0625 C495.56225393 1176.37010339 498.61206 1172.73279049 501.7253418 1169.13647461 C555.08244432 1107.49171965 593.2736991 1033.61577565 651.375 767.1875 C651.39691406 766.27822754 651.41882812 765.36895508 651.44140625 764.43212891 C653.43485367 669.59386801 633.75345581 574.22795368 559.86328125 417.66455078 C558.57762376 415.52474093 557.31328454 413.37513693 556.0625 411.21484375 C533.53369334 372.5143429 505.40583439 336.47753583 474.86621094 303.79199219 C473.38260905 302.19568708 471.91207867 300.58833962 470.4453125 298.9765625 C461.26320501 288.9021738 451.90254398 278.83099875 441.484375 270.015625 C439.18841785 268.02579547 436.97157456 265.96474086 434.75195312 263.890625 C429.34960584 258.84427054 423.85553266 254.00390156 418.0859375 249.375 C415.32832163 247.14983446 412.63523923 244.85973453 409.9375 242.5625 C401.36309401 235.40791803 392.36018083 228.81314513 383.375 222.1875 C382.58722168 221.60500488 381.79944336 221.02250977 380.98779297 220.42236328 C357.66118864 203.21534703 332.93621107 187.85248326 307.375 174.1875 C306.40675293 173.66720215 305.43850586 173.1469043 304.44091797 172.61083984 C232.0229587 133.85901629 153.11703496 110.27283841 -190.078125 121.84765625 C-260.05790504 143.41119312 -326.17072806 175.22886227 -385.625 218.1875 C-386.43308105 218.76886719 -387.24116211 219.35023438 -388.07373047 219.94921875 C-399.23379775 227.99779265 -410.0561892 236.37827475 -420.625 245.1875 C-421.20475586 245.66815918 -421.78451172 246.14881836 -422.38183594 246.64404297 C-429.39681603 252.46707945 -436.20233662 258.4771416 -442.890625 264.671875 C-445.88047869 267.42254039 -448.92419985 270.1007902 -452.00390625 272.75 C-453.66649063 274.18103735 -453.66649063 274.18103735 -455.21484375 275.875 C-456.625 277.1875 -456.625 277.1875 -458.625 277.1875 C-458.89391556 277.78205994 -459.16283112 278.37661987 -459.43989563 278.98919678 C-460.62883843 281.19462007 -461.81081146 282.60971096 -463.58666992 284.36035156 C-464.18456833 284.95487122 -464.78246674 285.54939087 -465.39848328 286.16192627 C-466.04428848 286.79427185 -466.69009369 287.42661743 -467.35546875 288.078125 C-468.02411453 288.74156921 -468.69276031 289.40501343 -469.38166809 290.08856201 C-471.52058082 292.20968406 -473.6660362 294.32402168 -475.8125 296.4375 C-477.94028759 298.53749707 -480.06653829 300.63899132 -482.18977356 302.74359131 C-483.50927409 304.05102544 -484.83143605 305.35578143 -486.15678406 306.6572876 C-490.53430846 310.98822387 -494.61875876 315.51274683 -498.625 320.1875 C-499.59817159 321.30537289 -500.57199603 322.42267828 -501.546875 323.5390625 C-507.96422584 330.9480026 -514.13216305 338.5085596 -520.12841797 346.26123047 C-521.74338599 348.3398761 -523.37265255 350.4067699 -525.00390625 352.47265625 C-532.8881821 362.48431408 -540.40737524 372.68581684 -547.625 383.1875 C-548.0257373 383.7640332 -548.42647461 384.34056641 -548.83935547 384.93457031 C-582.4811591 433.41625777 -607.59355497 487.48989663 -626.625 543.1875 C-627.00897949 544.30672852 -627.39295898 545.42595703 -627.78857422 546.57910156 C-644.7426767 596.4219939 -655.12064828 648.64942488 -658.625 701.1875 C-658.71112549 702.39253174 -658.79725098 703.59756348 -658.88598633 704.83911133 C-659.80833886 718.67583292 -659.82495271 732.51247628 -659.8125 746.375 C-659.81189575 747.6176059 -659.8112915 748.86021179 -659.81066895 750.14047241 C-659.78591201 768.90698426 -659.47023707 787.49946046 -657.625 806.1875 C-657.56183594 806.84681519 -657.49867188 807.50613037 -657.43359375 808.1854248 C-649.17192861 894.41149242 -625.29392271 977.87032168 -555.625 1108.1875 C-555.18559082 1108.86248535 -554.74618164 1109.5374707 -554.29345703 1110.23291016 C-539.96762832 1132.16374146 -524.25967826 1153.19507728 -507.23828125 1173.10546875 C-504.83418687 1175.92385029 -502.50732006 1178.79921953 -500.1875 1181.6875 C-495.41706589 1187.54637541 -490.2986627 1193.04642432 -485.13916016 1198.56005859 C-483.1831799 1200.66237468 -481.25314554 1202.78756614 -479.32299805 1204.91357422 C-472.4302099 1212.49503389 -465.37260898 1219.768263 -457.58984375 1226.44140625 C-455.51679676 1228.28365675 -453.57064198 1230.21151662 -451.625 1232.1875 C-448.45047296 1235.4052599 -445.16303285 1238.41187296 -441.734375 1241.35546875 C-439.44870454 1243.34061587 -437.22798622 1245.3878983 -435 1247.4375 C-429.36488324 1252.52116802 -423.41645903 1257.15285866 -417.41748047 1261.79345703 C-415.69751723 1263.1311021 -413.98927159 1264.48208922 -412.28515625 1265.83984375 C-362.765954 1305.25887391 -307.31615028 1337.49176593 -248.625 1361.1875 C-247.58891602 1361.60902344 -246.55283203 1362.03054688 -245.48535156 1362.46484375 C-201.26799846 1380.33550204 -155.75830925 1392.90674491 -108.625 1400.1875 C-110.9068963 1405.8038278 -114.1272134 1408.7565485 -118.6875 1412.5 C-120.04886954 1413.64631356 -121.40954575 1414.79345101 -122.76953125 1415.94140625 C-123.43162598 1416.49586426 -124.0937207 1417.05032227 -124.77587891 1417.62158203 C-127.19506331 1419.67025496 -129.53784471 1421.79604853 -131.875 1423.9375 C-135.16792966 1426.92613253 -138.53816769 1429.77133605 -142 1432.5625 C-146.55360712 1436.24386689 -150.86082516 1440.11524473 -155.14404297 1444.10107422 C-159.23114105 1447.88200286 -163.50082472 1451.38722768 -167.84765625 1454.8671875 C-170.35010527 1456.95784111 -172.70209252 1459.12649956 -175.05664062 1461.37744141 C-182.52843849 1468.49793879 -191.09314529 1475.89558101 -201.82495117 1476.31152344 C-205.67710477 1476.18579944 -208.81334471 1475.55426325 -212.51953125 1474.5234375 C-213.16348343 1474.34461029 -213.80743561 1474.16578308 -214.47090149 1473.98153687 C-222.15477104 1471.8125465 -229.7425014 1469.34640072 -237.3125 1466.8125 C-238.07901886 1466.55661102 -238.84553772 1466.30072205 -239.63528442 1466.03707886 C-267.6167273 1456.6603894 -294.89767988 1445.69204059 -321.625 1433.1875 C-322.78354492 1432.64738281 -323.94208984 1432.10726563 -325.13574219 1431.55078125 C-340.61305219 1424.30480125 -355.73350367 1416.56814031 -370.625 1408.1875 C-371.91083984 1407.47110352 -371.91083984 1407.47110352 -373.22265625 1406.74023438 C-418.54261285 1381.48273217 -461.74120443 1351.44956131 -500.11328125 1316.453125 C-502.21003793 1314.56180482 -504.32687895 1312.70098146 -506.45703125 1310.84765625 C-516.72945372 1301.8737982 -526.52833037 1292.3761793 -536.1875 1282.75 C-536.92468262 1282.01740967 -537.66186523 1281.28481934 -538.42138672 1280.5300293 C-542.43778979 1276.5021978 -546.25276798 1272.36883476 -549.96557617 1268.06079102 C-552.50796977 1265.19073275 -555.24866671 1262.54251282 -558 1259.875 C-562.85645169 1255.09577842 -567.27711441 1250.14532653 -571.515625 1244.80078125 C-573.63519113 1242.17487432 -575.84942801 1239.67885898 -578.125 1237.1875 C-581.93884108 1232.99227481 -585.56559384 1228.68280503 -589.12890625 1224.2734375 C-590.93698156 1222.03810183 -592.75612763 1219.81561795 -594.58984375 1217.6015625 C-608.38392367 1200.89117764 -620.82225689 1183.35066841 -632.625 1165.1875 C-633.13240723 1164.40971191 -633.63981445 1163.63192383 -634.16259766 1162.83056641 C-648.43439509 1140.87504015 -661.03068709 1118.02926806 -672.84912109 1094.68359375 C-674.5144069 1091.40521971 -676.20130273 1088.13900539 -677.89453125 1084.875 C-719.50210231 1004.02356145 -744.90625095 914.617514 -753.375 819.625 C-753.43416595 818.93594574 -753.49333191 818.24689148 -753.55429077 817.53695679 C-755.253772 797.38362609 -755.83163679 777.28512036 -755.8125 757.0625 C-755.81189575 755.8760791 -755.8112915 754.6896582 -755.81066895 753.46728516 C-755.78381954 733.96544796 -755.33956397 714.61713496 -753.625 695.1875 C-753.53025391 694.09770844 -753.53025391 694.09770844 -753.43359375 692.98590088 C-750.22294903 656.36153354 -744.78229423 620.04141372 -736.625 584.1875 C-736.46449158 583.48123474 -736.30398315 582.77496948 -736.13861084 582.04730225 C-718.7435993 505.94331853 -689.59916208 431.96293636 -649.32958984 365.02294922 C-647.62041521 362.17987357 -645.92878084 359.32686672 -644.23828125 356.47265625 C-631.55444954 335.19620014 -617.56438703 314.93473378 -602.34228516 295.39990234 C-600.82113972 293.44018952 -599.31731644 291.46939104 -597.82421875 289.48828125 C-589.42324727 278.35785261 -580.27793472 267.91014774 -570.859375 257.63671875 C-568.89937117 255.48825301 -566.97155509 253.31866193 -565.0625 251.125 C-563.91767979 249.81161622 -562.77169951 248.49924331 -561.625 247.1875 C-560.72031982 246.15254395 -560.72031982 246.15254395 -559.79736328 245.09667969 C-553.72140813 238.24541114 -547.33496063 231.74392526 -540.84985352 225.28198242 C-539.0582405 223.4957533 -537.27206945 221.70420653 -535.48632812 219.91210938 C-530.18978079 214.61280663 -524.89065779 209.39050046 -519.18383789 204.52807617 C-517.22619007 202.84452971 -515.41784065 201.04437068 -513.625 199.1875 C-510.4538397 195.97315269 -507.16917247 192.96999037 -503.74609375 190.02734375 C-501.40008942 187.99241181 -499.1076355 185.90459033 -496.8125 183.8125 C-491.56334825 179.08188148 -486.13077537 174.61482453 -480.625 170.1875 C-479.46864408 169.25013065 -478.3123992 168.3126243 -477.15625 167.375 C-414.53574535 116.75363397 -343.49498044 74.87973207 -249.625 41.1875 C-248.91321594 40.94257812 -248.20143188 40.69765625 -247.46807861 40.4453125 C-171.01952283 14.2000437 -90.29675521 0.40168311 0 0 Z " fill="#FEC11E" transform="translate(793.625,40.8125)"/>
<path d="M0 0 C133.98 0 267.96 0 406 0 C406 33.66 406 67.32 406 102 C305.02 102 204.04 102 100 102 C100 426.39 100 750.78 100 1085 C114.85 1082.36 129.7 1079.72 145 1077 C193.79959668 1073.74669355 234.36091403 1085.89578939 277 1109 C277 1109.66 277 1110.32 277 1111 C275.04900391 1111.16435547 275.04900391 1111.16435547 273.05859375 1111.33203125 C267.91121578 1111.76905049 262.76565162 1112.22543966 257.62011719 1112.68359375 C253.88573365 1113.00998713 250.15002282 1113.3172321 246.4140625 1113.625 C181.91530534 1119.14147382 129.17946577 1144.46198395 82.68041992 1188.66088867 C78.83488879 1192.31282781 74.91548649 1195.85147581 70.91064453 1199.32788086 C68.097941 1201.7894457 65.36036013 1204.32819673 62.625 1206.875 C57.96166777 1211.1986416 53.26303824 1215.47818453 48.52734375 1219.72265625 C45.66917816 1222.29809758 42.83287917 1224.89683799 40 1227.5 C36.37256511 1230.83328749 32.73106924 1234.14946307 29.0625 1237.4375 C25.805635 1240.35673147 22.58498414 1243.30992244 19.38500977 1246.29101562 C13.24777152 1252.00212041 6.97672634 1257.52078987 0.58203125 1262.94140625 C-1.82261642 1264.98276654 -4.19671675 1267.0528775 -6.55078125 1269.15234375 C-25.06758456 1285.61061144 -45.57244821 1299.61434599 -67 1312 C-67.66805664 1312.38623535 -68.33611328 1312.7724707 -69.02441406 1313.17041016 C-106.1736922 1334.50461009 -144.9782488 1350.36911384 -187 1359 C-187.94488281 1359.19577637 -188.88976562 1359.39155273 -189.86328125 1359.59326172 C-277.52920054 1377.3403405 -369.08240915 1358.95251371 -474.41699219 1299.41894531 C-480.92894831 1295.02508547 -487.23862078 1290.34985213 -493 1285 C-493 1284.67 -493 1284.34 -493 1284 C-485.43224871 1284.50265507 -478.88440174 1286.99673062 -471.8125 1289.625 C-469.92059416 1290.31391472 -468.02726969 1290.99883221 -466.13389587 1291.68370056 C-464.25068327 1292.36519216 -462.36850046 1293.04952729 -460.48632812 1293.73388672 C-427.47826483 1305.72126881 -393.03561554 1313.23097596 -358 1316 C-356.04707031 1316.16628906 -356.04707031 1316.16628906 -354.0546875 1316.3359375 C-262.43579061 1323.37051635 -176.07778636 1293.69333059 -105.73681641 1235.43261719 C-103.23765595 1233.37117868 -100.70954629 1231.34583293 -98.1875 1229.3125 C-93.49645537 1225.47373225 -89.01234087 1221.43779571 -84.55078125 1217.3359375 C-81.76788998 1214.78743983 -78.93202668 1212.30864229 -76.08203125 1209.8359375 C-73.58456643 1207.63367021 -71.138723 1205.37859965 -68.6875 1203.125 C-65.06476095 1199.81663086 -61.38307109 1196.63987642 -57.5625 1193.5625 C-52.43252873 1189.42188033 -47.595352 1185.0273268 -42.76171875 1180.55078125 C-38.22459043 1176.36019455 -33.56295149 1172.32538522 -28.85546875 1168.328125 C-25.83827166 1165.76522059 -22.83949097 1163.18180249 -19.84765625 1160.58935547 C-18.62015607 1159.53345877 -17.38577549 1158.48550616 -16.14453125 1157.44580078 C-6.10565987 1149.08938433 -6.10565987 1149.08938433 -2 1137 C-1.83113281 1135.81535156 -1.66226562 1134.63070313 -1.48828125 1133.41015625 C-0.84851694 1128.1835865 -0.64592948 1122.94607336 -0.4375 1117.6875 C-0.39431641 1116.73810547 -0.35113281 1115.78871094 -0.30664062 1114.81054688 C0.2825589 1100.51076798 0.0443007 1086.20576613 -0.34606981 1071.90437156 C-1.32097122 1035.97792847 -1.16793803 1000.03645265 -1.18449906 964.10000226 C-1.18951326 953.68623341 -1.20028664 943.27247222 -1.21120207 932.85870816 C-1.23122334 913.62802463 -1.2469849 894.39733997 -1.26036072 875.16665077 C-1.27873765 848.82870017 -1.30344366 822.49075805 -1.32973462 796.15281429 C-1.34203569 783.82093509 -1.35403091 771.4890556 -1.36594391 759.15717602 C-1.36713643 757.9230454 -1.36832896 756.68891478 -1.36955762 755.41738626 C-1.39779628 726.11899831 -1.42302447 696.82060789 -1.44775391 667.5222168 C-1.4493757 665.60270852 -1.4493757 665.60270852 -1.45103026 663.64442231 C-1.46526434 646.79387212 -1.47939189 629.94332184 -1.49348927 613.09277153 C-1.51294164 589.84334171 -1.53249696 566.59391199 -1.55224609 543.34448242 C-1.55386529 541.43635154 -1.55386529 541.43635154 -1.5555172 539.48967256 C-1.58028083 510.32595204 -1.6059028 481.16223259 -1.63405609 451.99851513 C-1.63584147 450.14848497 -1.63584147 450.14848497 -1.63766291 448.26108046 C-1.64958125 435.93013315 -1.6616413 423.59918599 -1.67391312 411.26823902 C-1.70002053 385.00236427 -1.72370031 358.7364908 -1.74208651 332.47060944 C-1.75555845 313.27999566 -1.77230412 294.08938694 -1.79218161 274.89877871 C-1.80279198 264.56021947 -1.8120416 254.22166421 -1.81687737 243.88310051 C-1.82236559 232.5519272 -1.8323703 221.220766 -1.84851074 209.88960266 C-1.84976601 208.98771541 -1.85102128 208.08582815 -1.85231459 207.15661098 C-1.88482822 185.12724774 -2.00457858 163.10028751 -2.24806213 141.07219505 C-2.26529183 139.51242276 -2.26529183 139.51242276 -2.2828696 137.92113991 C-2.39529799 127.84272966 -2.51491523 117.76444043 -2.64957883 107.68630186 C-3.82832858 19.14164289 -3.82832858 19.14164289 0 0 Z " fill="#FEC11E" transform="translate(743,278)"/>
<path d="M0 0 C0 17.49 0 34.98 0 53 C-3.39677151 51.86774283 -4.02230115 50.98607076 -6.1875 48.25 C-12.83795958 40.48881648 -20.93752657 36.69500911 -31.14111328 35.81542969 C-48.62615483 34.7974524 -62.50598779 38.67502974 -76.0625 50.0625 C-100.25179998 72.77545773 -109.5450842 112.05461347 -111 144 C-112.51957894 192.78908571 -109.88676331 253.21340185 -75.05078125 291.12109375 C-66.1952831 299.77418051 -53.68997261 306.152149 -41.265625 306.09765625 C-39.32236328 306.09282227 -39.32236328 306.09282227 -37.33984375 306.08789062 C-35.97656183 306.07953598 -34.61328058 306.07107104 -33.25 306.0625 C-31.87109535 306.05748168 -30.49218896 306.05291935 -29.11328125 306.04882812 C-25.74214341 306.03704093 -22.37109372 306.02058635 -19 306 C-18.50308269 307.42283612 -18.0120333 308.84772239 -17.5234375 310.2734375 C-17.24935059 311.06669434 -16.97526367 311.85995117 -16.69287109 312.67724609 C-14.47790871 320.10259921 -17.23463453 325.62847409 -20.61889648 332.09179688 C-21.19712158 333.12369141 -21.77534668 334.15558594 -22.37109375 335.21875 C-23.02849878 336.39859151 -23.68588744 337.57844214 -24.34326172 338.75830078 C-24.68484314 339.36836975 -25.02642456 339.97843872 -25.37835693 340.60699463 C-32.26033229 352.90714248 -38.90082338 365.31497095 -45.3581543 377.84375 C-46.60207215 380.23503178 -47.8562265 382.61943712 -49.12036133 385 C-55.68383498 397.37127835 -62.0051114 409.85614719 -68.25854492 422.38671875 C-69.92914852 425.73327033 -71.60400602 429.07766788 -73.27929688 432.421875 C-79.93123544 445.72165715 -86.43014028 459.08604151 -92.81509399 472.51580811 C-94.49275272 476.03307124 -96.19230046 479.53945 -97.8984375 483.04296875 C-98.47182861 484.22133301 -99.04521973 485.39969727 -99.63598633 486.61376953 C-100.20986084 487.79310059 -100.78373535 488.97243164 -101.375 490.1875 C-105.95881617 499.62095415 -110.44482255 509.08906294 -114.8125 518.625 C-129.22598964 549.95056313 -144.83703188 580.74392874 -160.21426392 611.60375977 C-161.3001149 613.78348306 -162.38477982 615.96379772 -163.46810913 618.14477539 C-170.25460826 631.79863361 -177.31148665 645.26538497 -184.68785095 658.6098175 C-186.3737815 661.68087234 -188.0253661 664.76955726 -189.66954041 667.86312866 C-194.03984526 676.00086109 -198.96212528 683.73955868 -204.0625 691.4375 C-204.7112207 692.42024902 -205.35994141 693.40299805 -206.02832031 694.41552734 C-213.14870357 705.0102714 -221.32564477 714.65114699 -230 724 C-230.59941406 724.66515625 -231.19882812 725.3303125 -231.81640625 726.015625 C-242.23989231 737.09198599 -255.17848396 744.92531651 -269 751 C-269.6295459 751.28214355 -270.2590918 751.56428711 -270.90771484 751.85498047 C-313.82947971 770.72010219 -369.26895779 761.90857886 -411.63061523 746.05419922 C-418.45371205 743.35969037 -425.12430551 740.30673308 -431.76199341 737.18780518 C-432.99757284 736.60728706 -434.23493188 736.03054077 -435.47409058 735.45770264 C-437.21139143 734.65010521 -438.93800095 733.81962918 -440.6640625 732.98828125 C-441.66904785 732.50915283 -442.6740332 732.03002441 -443.70947266 731.53637695 C-446 730 -446 730 -446.91870117 728.01318359 C-447.05610919 724.61058147 -445.3181077 722.23060156 -443.6875 719.3125 C-443.20506836 718.42208008 -443.20506836 718.42208008 -442.71289062 717.51367188 C-440.28578828 713.14289414 -440.28578828 713.14289414 -438 712 C-436.31103516 712.60498047 -436.31103516 712.60498047 -434.2890625 713.6171875 C-433.54495117 713.97707764 -432.80083984 714.33696777 -432.03417969 714.70776367 C-431.23915039 715.09295166 -430.44412109 715.47813965 -429.625 715.875 C-417.1460294 721.62020762 -407.27199442 722.11371773 -394 718 C-385.57137098 714.69022129 -378.77765936 709.93180747 -372 704 C-370.71416016 702.89591797 -370.71416016 702.89591797 -369.40234375 701.76953125 C-354.06665952 688.33056814 -341.86478365 671.1626201 -331 654 C-330.28408691 652.87464844 -330.28408691 652.87464844 -329.55371094 651.7265625 C-317.05783721 632.01386317 -305.4418283 611.81350686 -294.53857422 591.18261719 C-294.15225382 590.4525595 -293.76593341 589.72250182 -293.36790633 588.97032118 C-285.22461858 573.56562018 -277.38947047 558.01501337 -269.63698053 542.41088581 C-267.7925015 538.70130751 -265.94236364 534.99455315 -264.09274292 531.28753662 C-259.43192711 521.94413031 -254.7780734 512.59726388 -250.125 503.25 C-245.07364261 493.10279396 -240.02087794 482.95629977 -234.96026981 472.8137033 C-233.13668784 469.15834661 -231.31476401 465.50218553 -229.49710464 461.8438797 C-221.67544875 446.10251681 -213.72761793 430.46943915 -205.17290306 415.10861015 C-203.53072159 412.15634527 -201.91224569 409.19144306 -200.29296875 406.2265625 C-158.42266166 330.40205326 -158.42266166 330.40205326 -127 316 C-126.34 316 -125.68 316 -125 316 C-125 315.34 -125 314.68 -125 314 C-125.63679688 313.91621094 -126.27359375 313.83242188 -126.9296875 313.74609375 C-131.2389222 312.69893875 -135.09863138 310.89917748 -139.125 309.0625 C-140.0030127 308.66281006 -140.88102539 308.26312012 -141.78564453 307.85131836 C-160.76908522 299.10657654 -177.80929813 289.54373842 -193 275 C-193.74636719 274.31679688 -194.49273438 273.63359375 -195.26171875 272.9296875 C-222.17592245 247.4715751 -233.06469237 206.16522556 -234.23304749 170.22554016 C-235.27844489 129.57381554 -227.81657028 90.80445802 -199.23120117 60.32641602 C-197.83266801 58.87206772 -196.42028621 57.4330949 -195 56 C-193.64841797 54.62908203 -193.64841797 54.62908203 -192.26953125 53.23046875 C-147.45199695 10.02018396 -60.39667804 -10.06611301 0 0 Z " fill="#FEC11E" transform="translate(731,462)"/>
<path d="M0 0 C1.31797073 0.03199493 1.31797073 0.03199493 2.66256714 0.06463623 C27.76345431 0.70095431 27.76345431 0.70095431 29.6875 2.625 C29.78398067 4.0115683 29.81121896 5.40302606 29.81054783 6.79294682 C29.81253888 7.69713732 29.81452993 8.60132782 29.81658131 9.53291804 C29.81366847 10.5377608 29.81075563 11.54260357 29.80775452 12.57789612 C29.80860894 13.6363906 29.80946337 14.69488509 29.81034368 15.78545517 C29.81200164 19.36162556 29.80647198 22.93774989 29.80102539 26.51391602 C29.80074356 29.0657552 29.80090117 31.61759446 29.8014679 34.16943359 C29.80169622 39.67845314 29.7988447 45.18745763 29.79323006 50.69647408 C29.7851174 58.66167303 29.78250008 66.62686626 29.78124207 74.5920689 C29.77905118 87.51377509 29.77239009 100.43547497 29.76293945 113.35717773 C29.75376629 125.91251596 29.74669645 138.46785247 29.74243164 151.02319336 C29.74216364 151.80445864 29.74189565 152.58572393 29.74161953 153.39066392 C29.73954021 159.50029227 29.73758325 165.60992066 29.73566496 171.71954906 C29.72622416 201.68803849 29.70610755 231.65651216 29.6875 261.625 C86.1175 261.625 142.5475 261.625 200.6875 261.625 C200.7184375 286.3440625 200.7184375 286.3440625 200.75 311.5625 C200.759104 316.77409912 200.76820801 321.98569824 200.77758789 327.35522461 C200.78210449 333.69836426 200.78210449 333.69836426 200.78294373 336.66383362 C200.78448361 338.74379184 200.78800943 340.82374916 200.79307556 342.90370178 C200.80035039 346.04641277 200.80140751 349.18906901 200.80102539 352.33178711 C200.80642255 353.73164431 200.80642255 353.73164431 200.81192875 355.15978146 C200.80152634 361.51097366 200.80152634 361.51097366 199.6875 362.625 C143.5875 362.625 87.4875 362.625 29.6875 362.625 C29.6875 504.525 29.6875 646.425 29.6875 792.625 C-19.8125 793.12 -19.8125 793.12 -70.3125 793.625 C-72.01266357 791.92483643 -71.43768937 789.7567978 -71.43784916 787.43003702 C-71.44035268 786.29421295 -71.4428562 785.15838887 -71.44543558 783.98814589 C-71.44309442 782.72202151 -71.44075325 781.45589712 -71.43834114 780.15140533 C-71.43938295 778.80154854 -71.4408632 777.45169203 -71.44274551 776.10183614 C-71.44667135 772.35855625 -71.44429308 768.61530184 -71.44096755 764.87202232 C-71.43844703 760.81249775 -71.4416843 756.75297731 -71.44421089 752.69345331 C-71.44783579 745.56740044 -71.44770494 738.44135513 -71.44516373 731.3153019 C-71.44139517 720.71894846 -71.44330771 710.12260146 -71.44637203 699.52624808 C-71.45164953 680.60574172 -71.45117672 661.68523873 -71.44829312 642.76473205 C-71.44578196 626.20751896 -71.44511881 609.65030711 -71.44631577 593.09309387 C-71.44639215 591.99670743 -71.44646854 590.900321 -71.44654724 589.77071073 C-71.44685855 585.32061796 -71.44717695 580.87052519 -71.447507 576.42043243 C-71.45056906 534.63728508 -71.4477877 492.85413988 -71.4424101 451.07099286 C-71.43766416 413.91305008 -71.43808877 376.75511072 -71.44287109 339.59716797 C-71.44822058 297.89260668 -71.45035193 256.18804729 -71.44725883 214.4834857 C-71.44693809 210.04129251 -71.44662525 205.59909932 -71.44631577 201.15690613 C-71.44623669 200.06304802 -71.44615761 198.96918991 -71.44607614 197.84218459 C-71.44493653 181.29150246 -71.4462729 164.74082171 -71.44879532 148.19013977 C-71.45164778 129.37965282 -71.45095432 110.56916978 -71.44551457 91.75868332 C-71.44256748 81.2187377 -71.44240211 70.67880052 -71.44616075 60.1388551 C-71.44839118 53.11198188 -71.4470294 46.08511548 -71.44265598 39.05824327 C-71.44026096 35.0456467 -71.43949717 31.033067 -71.44306196 27.02047092 C-71.44626487 23.37835705 -71.44496005 19.73627521 -71.4398813 16.09416372 C-71.43838086 14.15006022 -71.44184078 12.20595487 -71.44543558 10.26185411 C-71.44293207 9.12603004 -71.44042855 7.99020596 -71.43784916 6.81996298 C-71.4377814 5.83329731 -71.43771365 4.84663164 -71.43764383 3.83006701 C-71.3125 1.625 -71.3125 1.625 -70.3125 0.625 C-67.33881663 0.45013422 -64.38698833 0.3400244 -61.41015625 0.2734375 C-60.01719833 0.23802856 -60.01719833 0.23802856 -58.59609985 0.2019043 C-55.52251594 0.12749399 -52.44884489 0.06266089 -49.375 0 C-48.3290567 -0.02245789 -47.2831134 -0.04491577 -46.20547485 -0.0680542 C-30.79365523 -0.38696301 -15.41018872 -0.38709908 0 0 Z " fill="#FEC11E" transform="translate(937.3125,466.375)"/>
</svg>
